<?xml version="1.0" encoding="UTF-8" standalone="no"?>
<svg
   xmlns:dc="http://purl.org/dc/elements/1.1/"
   xmlns:cc="http://creativecommons.org/ns#"
   xmlns:rdf="http://www.w3.org/1999/02/22-rdf-syntax-ns#"
   xmlns:svg="http://www.w3.org/2000/svg"
   xmlns="http://www.w3.org/2000/svg"
   xmlns:sodipodi="http://sodipodi.sourceforge.net/DTD/sodipodi-0.dtd"
   xmlns:inkscape="http://www.inkscape.org/namespaces/inkscape"
   width="210mm"
   height="297mm"
   viewBox="0 0 210 297"
   version="1.1"
   id="svg8"
   inkscape:version="1.0.2 (e86c8708, 2021-01-15)"
   sodipodi:docname="logo.svg">
  <defs
     id="defs2">
    <style
       id="style10">.cls-1{fill:#151619;}</style>
  </defs>
  <sodipodi:namedview
     id="base"
     pagecolor="#ffffff"
     bordercolor="#666666"
     borderopacity="1.0"
     inkscape:pageopacity="0.0"
     inkscape:pageshadow="2"
     inkscape:zoom="0.68899956"
     inkscape:cx="432.79619"
     inkscape:cy="520.75129"
     inkscape:document-units="mm"
     inkscape:current-layer="layer1"
     inkscape:document-rotation="0"
     showgrid="false"
     inkscape:window-width="1252"
     inkscape:window-height="791"
     inkscape:window-x="0"
     inkscape:window-y="25"
     inkscape:window-maximized="0" />
  <metadata
     id="metadata5">
    <rdf:RDF>
      <cc:Work
         rdf:about="">
        <dc:format>image/svg+xml</dc:format>
        <dc:type
           rdf:resource="http://purl.org/dc/dcmitype/StillImage" />
        <dc:title />
      </cc:Work>
    </rdf:RDF>
  </metadata>
  <g
     inkscape:label="Layer 1"
     inkscape:groupmode="layer"
     id="layer1">
    <g
       id="Livello_1-2"
       data-name="Livello 1"
       transform="matrix(0.26458333,0,0,0.26458333,44.991732,44.639253)"
       style="fill:#000000">
      <path
         class="cls-1"
         d="m 245.08,214 c -11.55,-10.51 -34.45,-25 -74.18,-24.81 -39.73,0.19 -33.24,20.67 -33.24,20.67 0,0 -0.81,16.71 25.14,17.23 25.95,0.52 53.77,1.55 76.34,10 22.57,8.45 17.5,-12.6 5.94,-23.09 z"
         id="path14"
         style="fill:#000000" />
      <path
         class="cls-1"
         d="m 151.18,252.17 c -2.39,1.44 -3,5.49 -0.23,6 15.69,2.86 40.51,8.06 68.2,3.59 2.62,-0.42 2.23,-4 0.33,-5.85 -9.82,-9.61 -36.2,-23.08 -68.3,-3.74 z"
         id="path16"
         style="fill:#000000" />
      <path
         class="cls-1"
         d="m 477.66,520.92 a 3.4,3.4 0 0 0 -6,0.87 c -16.15,48 -29.37,36.24 -35.48,25.92 a 43.73,43.73 0 0 1 -4.7,-11.68 c -15.41,-61.32 -1.3,-117.8 -1.3,-117.8 8.39,26.1 30.39,33.84 41.66,36.1 a 3.44,3.44 0 0 0 3.72,-5 c -43.18,-84.62 -17.65,-120.48 -17.65,-120.48 7.43,8.26 19.68,9 27.4,8.57 a 3.46,3.46 0 0 0 2.38,-5.76 C 456.4,297.12 454.02,285.4 452.8,226.9 452.13,194.48 440.74,177.43 430.15,168.55 418.03,158.4 408.36,145.47 403.07,130.55 360.85,11.89 281.86,-3.79 208.56,0.65 117.56,6.17 69.11,75.81 46.11,110.51 21.78,147.2 2.82,201.45 4.1,218.05 c 1.28,16.6 16.6,14 16.6,33.19 0,19.19 -29.66,35.15 -18,89.1 5.15,23.77 26,41.59 16.62,95.89 C 2.55,533.82 77.36,652.4 96,670.09 c 2.26,2.13 6.23,0.41 5.82,-2.67 -2.91,-21.78 1.35,-52 1.35,-52 37.48,80.33 142.34,65.43 175.18,58.54 a 3.45,3.45 0 0 0 0.91,-6.43 c -33.16,-17.61 -40.74,-53.39 -40.74,-53.39 33,15.62 54.14,13 64.33,9.65 a 3.45,3.45 0 0 0 0.75,-6.19 c -9.94,-6.24 -25.09,-32 -36.55,-57.21 a 60.55,60.55 0 0 1 8.82,-63.92 c 13.41,-16 31,-38.33 51,-62.06 4.18,-5 10,-0.12 12.2,5.3 29.22,73.15 67.23,128.29 93.43,143.49 19,11.73 39.81,13.84 49.16,6.46 25.78,-20.33 5.34,-55.4 -4,-68.74 z M 161.34,452.84 C 130,454.73 137.14,414 114.12,415 c -24.66,1.1 -17.27,32.16 -33.81,34.05 -16.54,1.89 -14.61,-45.61 -3,-51.12 18.29,-8.66 39.71,-10.74 56.86,-10.14 20.32,0.7 39.73,-0.09 48.84,19.45 10.79,23.05 9.66,43.76 -21.67,45.6 z M 359.53,161.78 c -41.67,24.76 -44.12,37 -50.09,80.54 -1.32,9.57 -2.66,20.77 1.72,27.1 9.89,14.29 28.7,24.87 23.54,49 -12.3,57.43 -44.73,124.76 -88.23,145.8 -5.24,2.53 -11.24,-2.59 -12.46,-8.27 -4.85,-22.76 -16.39,-64.14 -19.51,-77.65 v 0 c -15.49,-77.39 -89.31,-78.46 -91.38,-63.66 -0.61,4.4 14.95,10.2 24.83,13.42 9.07,3 9.38,15.94 0.35,19 a 25.27,25.27 0 0 1 -7.32,1.18 v 0 c -18.25,-1.25 -41.4,0.17 -51.84,0.93 A 14.09,14.09 0 0 1 74.2,337.51 c -4.08,-23.69 3.13,-32.18 11.85,-54.68 4.34,-11.2 9.91,-33.78 11.84,-45.36 1,-6.21 0.57,-13.67 -0.08,-19.26 a 138.08,138.08 0 0 1 -0.93,-19.92 c 0.62,-21.47 2.75,-39 19.1,-39 29.45,0 91.77,0.09 101.64,-14.39 10.35,-15.16 -47.41,-0.46 -109.48,-2.46 a 5,5 0 0 1 -4.81,-4.52 c 0,-0.38 -0.07,-0.75 -0.11,-1.13 A 7.91,7.91 0 0 1 111,128.2 c 33.15,-0.41 58.37,-2.71 65,-12.37 6.74,-9.88 -26.76,-5.45 -64.73,-5.1 -4.86,0 -8.88,-0.07 -8.63,-4.92 v -0.16 A 7.85,7.85 0 0 1 110,98.23 c 22.34,-1.47 31.86,-3.17 32.8,-10.31 0.94,-7.14 -2.3,-6.42 -27,-5 -5.37,0.3 -3.83,-3.77 -0.78,-8.22 C 122.73,63.35 157.2,30.61 233.47,33 364.13,37.16 360,129.7 364,152.18 a 9.28,9.28 0 0 1 -4.47,9.6 z"
         id="path18"
         style="fill:#000000" />
    </g>
  </g>
</svg>
